<?xml version="1.0" encoding="UTF-8" standalone="no"?>
<svg xmlns="http://www.w3.org/2000/svg" height="256" width="256" version="1.0">
 <defs></defs>
 <flowRoot font-weight="normal" xml:space="preserve" font-size="64px" transform="translate(131.42818,-1036.6674)" font-style="normal" font-family="Bitstream Vera Sans" fill="#000000"><flowRegion><rect y="81.963" x="-288.27" width="167.66" height="147.07"/></flowRegion><flowPara/></flowRoot>
 <path fill-rule="evenodd" fill="#F00" d="M220.62,240.49c-71.48,16.18-139.6,14.34-204.34-3.84-7.4912-14.37-17.493-72.31-2.403-83.93,70.235-6.36,180.59-19.37,200.35-10.74,21.188-0.19772,17.303,78.046,6.3916,98.509z"/>
 <g transform="matrix(1.2112797,0,0,0.79895763,-2.835904,30.75343)">
  <g transform="matrix(0.50265005,-0.14617869,0.13813874,0.47190718,-53.178413,-40.978778)" fill-rule="evenodd">
   <path d="m52.816,414.87c-11.267-0.30864-24.869,2.247-35.14,1.5996,7.2824-119.95,37.772-180.52,78.278-193.78,4.2854,4.2353,14.23,3.9587,17.184,9.1641,0.90284,16.771-5.8157,33.869-11.233,54.859-2.0177,5.3437-25.098-13.549-27.116-8.2049-14.599,18.402-25.801,26.331-19.571,45.648,4.4447,13.78,51.862-14.685,48.204-12.406,5.1035,36.56-39.641,97.835-50.607,103.12z" fill="#b2b2b2"/>
   <path d="m96.608,220.61c9.5924,3.4656,12.916,1.818,14.865,8.9176-0.72061,10.595,1.5471,20.174,1.8142,31.986-13.286-14.341-33.809-13.45-60.309-7.3146,2.3101,1.802,15.411-25.028,43.629-33.589z" fill="#CCC"/>
   <path d="m64.168,395.7c16.968-11.98,38.081-54.869,36.577-82.82-15.972,11.642-35.099,23.354-44.113,6.2038-5.6203-10.693,11.436-30.8,18.82-47.801,1.3395-2.5255,19.829,10.335,30.761,11.275,2.3949-13.752,8.9185-55.302-0.0127-58.474l-11.25-3.43c-29.565,12.64-30.595,19.2-35.267,24.93-23.699,30.83-38.471,126.42-39.001,162.83l-7.9774,4.2654c0.86476-37.037,17.663-139.52,45.347-171.71,5.3324-5.4359,6.6973-12.628,41.235-25.408l14.564,3.3273c9.9272,2.8342,0.69086,55.656-2.0389,70.04-13.25-1.1866-34.728-13.031-35.407-10.212-8.3801,17.34-18.988,27.023-12.801,37.991,10.734,19.028,28.578-13.859,43.159-13.642,5.4892,26.596-16.37,84.746-42.596,92.63z" fill="#000"/>
   <path fill="#000" d="m41.037,322.31c4.8238-33.726,9.8213-38.531,12.844-45.769-1.7337,14.045-6.1039,25.364-4.8747,43.059-4.0184,7.5766-8.6641,8.639-7.9689,2.71z"/>
  </g>
 </g>
 <g fill-rule="evenodd" transform="matrix(0.61746482,0,0,0.48570294,-46.266714,-58.758862)">
  <path fill="#b2b2b2" d="m445.47,412.98c-10.293,0.10747-13.084-9.9296-23.377-9.8222,2.1691-102.49,10.548-193.72,31.17-273.06,51.337,43.886,6.5088,249.53-7.7929,282.89z"/>
  <path fill="#CCC" d="m454.44,136.55c-8.4339,82.17-21.389,178.56-29.139,260.97-52.445,17.525-46.527-255.48,29.139-260.97z"/>
  <path fill="#000" d="m450.82,413.38c13.994,0.45492,20.855-135.03,32.257-196.55l-11.361,11.787c-12.476,43.8-5.288,113.44-20.896,184.76z"/>
  <path d="m420.57,404.88c-38.007-30.853-31.371-232,30.856-268.65,17.694,1.0172,29.77,38.913,29.742,72.067,8.659-16.517-4.5456-81.194-27.184-81.709-53.779,13.282-113.2,223.54-33.414,278.3z" fill="#000"/>
  <path fill="#000" d="m455.47,174.6c-12.175,55.967-7.7842,86.17-9.6926,99.811,3.6048-34.142,8.5774-67.798,15.533-93.212-1.354-17.063-2.5989-15.999-5.8408-6.5997z"/>
  <path d="m379.38,317.12c-5.2596,4.9127-3.2954,31.72,7.6885,61.253-49.497-50.015-61.071-76.471-91.103-124.08,49.012-2.1642,70.802,46.287,83.414,62.832z" fill="#b2b2b2"/>
  <path fill="#CCC" d="m300.47,256.64c36.659,43.187,51.815,66.667,88.475,109.85,11.852,69.789-124.77-73.017-88.475-109.85z"/>
  <path fill="#000" d="m417.31,401.46c-34.738,1.9651-132.08-98.231-119.05-143.34,9.678-7.8635,37.809,7.4179,54.682,23.217-3.5974-11.832-46.583-38.426-58.471-29.087-20.861,30.266,55.098,158.28,122.84,149.21z"/>
  <path fill="#000" d="m315.26,275.47c24.136,31.95,43.095,44.723,49.62,51.566-16.716-18.005-32.467-36.42-42.623-51.338-10.225-7.4054-10.102-5.8541-6.9968-0.22745z"/>
 </g>
 <path d="m219.4,234.01c14.313-47.342,8.0646-67.647-4.3268-82.693-32.377-6.3986-159.67-9.4967-195.61,5.6095-15.484,27.411-11.023,60.927,1.8901,77.256,25.871,16.266,188.04,8.2505,198.05-0.17185zm34.231-31.402c0.90045,20.679-10.826,29.23-18.08,16.082-1.4243,8.6017-3.9013,17.918-6.9001,25.951-22.095,11.716-187.59,17.621-207.5,0.0399-12.944-3.22-33.073-70.28-7.62-93,41.192-15.4,158.16-14.02,200-12.41,15.236-0.51767,23.757,20.972,24.38,49.456,7.0224-8.4555,14.36-2.4979,15.722,13.879zm-9.4778,8.0655c-7.2397,0.86016-8.7246-15.828-2.2194-20.856,6.413-2.0713,7.581,16.937,2.2194,20.856z" fill-rule="evenodd" fill="#000"/>
 <flowRoot font-weight="normal" xml:space="preserve" transform="matrix(1.6666256,0,0,1.5749044,462.86758,-5.7562293)" font-style="normal" font-size="64px" font-family="Bitstream Vera Sans" fill="#ffffff"><flowRegion><rect height="74.112" width="124.72" y="86.866" x="-269.64" fill="#FFF"/></flowRegion><flowPara>PDF</flowPara></flowRoot>
</svg>
